<?xml version="1.0" standalone="no"?>
<!DOCTYPE svg PUBLIC "-//W3C//DTD SVG 20010904//EN"
 "http://www.w3.org/TR/2001/REC-SVG-20010904/DTD/svg10.dtd">
<svg version="1.0" xmlns="http://www.w3.org/2000/svg"
 width="1024.000000pt" height="1024.000000pt" viewBox="0 0 1024.000000 1024.000000"
 preserveAspectRatio="xMidYMid meet">
<metadata>
Created by potrace 1.16, written by Peter Selinger 2001-2019
</metadata>
<g transform="translate(0.000000,1024.000000) scale(0.100000,-0.100000)"
fill="#000000" stroke="none">
<path d="M0 8918 l0 -1322 36 -72 c65 -132 185 -222 324 -244 38 -6 267 -10
553 -10 l487 1 0 418 c0 230 -3 433 -6 450 -4 17 -16 37 -28 43 -24 13 -123
15 -183 4 -71 -13 -51 10 52 59 81 39 101 54 144 106 45 56 91 159 91 204 0
26 29 16 36 -12 23 -108 73 -196 137 -243 22 -16 74 -44 116 -61 112 -46 112
-52 -4 -46 -112 5 -152 -4 -166 -40 -10 -27 -13 -824 -3 -861 l6 -22 502 1
c275 0 528 5 561 10 140 23 290 135 330 247 22 61 41 67 52 15 4 -21 8 -306 8
-634 0 -490 -2 -599 -14 -612 -22 -27 -28 -21 -40 46 -31 161 -134 280 -281
324 -47 14 -121 17 -515 19 -253 1 -475 0 -492 -3 l-33 -5 0 -142 c0 -77 0
-148 -1 -156 -1 -8 -1 -64 0 -125 1 -135 0 -145 -11 -145 -4 0 -8 102 -9 228
0 125 -1 252 -1 282 -1 89 12 343 17 349 3 2 5 -53 5 -122 0 -106 2 -127 15
-127 13 0 15 21 15 132 0 72 3 129 6 125 4 -3 6 -63 5 -132 -1 -106 1 -125 14
-125 13 0 15 20 16 128 0 83 4 118 9 100 4 -15 6 -73 4 -128 -3 -83 -1 -100
11 -100 17 0 16 -3 20 138 3 147 15 139 15 -11 0 -106 2 -127 15 -127 13 0 15
21 15 127 0 69 2 124 5 122 2 -3 6 -59 8 -124 3 -77 8 -120 16 -123 8 -3 11
34 12 125 1 149 16 130 18 -23 1 -54 3 -100 6 -102 2 -2 9 -1 15 3 7 4 10 47
9 121 0 64 2 118 5 121 3 4 6 -51 6 -120 0 -106 2 -127 15 -127 12 0 15 21 16
128 l2 127 9 -90 c5 -49 7 -107 6 -127 -3 -26 1 -38 9 -38 10 0 13 29 15 113
0 61 1 118 1 125 -1 6 3 12 8 12 5 0 9 -56 9 -125 0 -77 4 -125 10 -125 13 0
12 -10 20 130 l6 125 2 -128 c2 -98 5 -128 15 -125 8 3 14 43 17 134 l6 129 2
-133 c2 -102 5 -133 15 -130 8 3 14 43 17 134 l6 129 2 -133 c2 -117 4 -133
18 -130 14 3 16 21 16 128 0 93 2 115 8 85 5 -22 9 -80 9 -128 1 -66 4 -88 14
-84 8 2 13 38 14 121 1 65 4 121 7 124 3 3 6 -52 6 -122 0 -98 3 -127 12 -124
9 3 15 42 18 129 l6 124 2 -127 c2 -106 5 -128 17 -128 8 0 15 8 16 18 0 9 2
63 3 120 4 147 16 139 16 -11 0 -76 4 -127 10 -127 15 0 20 34 23 150 l3 105
2 -125 c2 -118 3 -126 22 -127 16 -1 20 4 20 28 0 16 -3 29 -7 29 -10 0 -1
156 10 166 4 4 6 -17 5 -47 -1 -30 -2 -83 0 -119 3 -89 20 -65 25 35 l3 80 2
-88 c1 -66 5 -88 15 -85 7 3 14 33 18 79 l5 74 2 -77 c1 -44 6 -78 12 -78 6 0
10 49 10 127 0 69 2 124 4 122 2 -2 6 -58 9 -124 4 -66 7 -120 7 -120 0 0 11
-2 24 -3 27 -2 30 11 42 163 4 44 9 82 11 85 4 4 -2 -156 -8 -200 -6 -43 1
-52 31 -48 17 3 30 2 30 -1 0 -3 12 -7 28 -8 56 -4 210 -90 245 -137 16 -21
-5 39 -54 156 -27 64 -58 151 -71 193 l-22 76 -251 -2 c-170 -1 -252 -5 -257
-13 -6 -8 -8 -7 -8 1 0 18 -586 19 -593 1 -4 -10 -6 -10 -6 0 -1 7 -15 12 -36
12 l-35 0 0 -447 c-1 -356 -3 -444 -13 -428 -9 15 -13 140 -15 472 l-4 452
617 -1 c339 0 619 3 622 6 4 3 4 8 2 10 -2 3 -289 6 -636 8 l-632 3 4 -65 c9
-152 6 -780 -4 -736 -3 16 -12 31 -20 34 -10 3 -12 -1 -8 -14 6 -17 6 -17 -8
1 -8 11 -20 26 -27 34 -15 18 -28 377 -20 596 l5 150 -619 -3 c-340 -2 -620
-5 -623 -8 -2 -2 -2 -6 1 -9 3 -3 276 -6 608 -8 l602 -2 4 -315 c3 -277 1
-313 -11 -296 -12 16 -15 64 -16 240 -1 122 -1 244 0 273 l2 51 -107 0 -107 1
7 -91 c5 -61 4 -88 -4 -83 -5 3 -10 43 -10 91 l0 84 -44 0 c-26 0 -46 -5 -49
-12 -4 -10 -6 -10 -6 0 -1 6 -5 12 -11 12 -6 0 -10 -52 -10 -135 0 -113 3
-137 15 -142 25 -9 28 3 12 51 -13 37 -14 59 -5 118 5 40 12 75 14 77 2 2 4
-31 4 -75 0 -99 13 -146 51 -185 26 -27 29 -36 29 -99 0 -39 -4 -70 -8 -70 -5
0 -13 32 -18 71 l-9 71 -335 2 c-431 2 -497 -2 -576 -38 -73 -33 -155 -112
-183 -177 -54 -123 -51 100 -51 -3316 l0 -3153 5120 0 5120 0 0 1938 0 1937
-33 -58 c-17 -31 -39 -65 -47 -75 -8 -9 -30 -36 -48 -59 -44 -56 -158 -146
-173 -137 -8 4 -9 3 -5 -5 9 -15 -112 -71 -169 -79 -39 -5 -47 4 -9 11 53 10
135 40 125 46 -7 4 3 14 24 24 19 9 36 16 38 14 2 -2 55 44 107 93 55 52 116
138 150 210 l35 75 3 996 2 996 -74 -72 c-44 -43 -93 -80 -120 -91 -25 -11
-46 -22 -46 -26 0 -4 -7 -4 -17 -1 -12 5 -14 3 -8 -7 5 -8 4 -11 -3 -6 -16 9
-63 -4 -56 -16 4 -6 -2 -8 -15 -3 -12 4 -21 2 -21 -4 0 -6 -3 -10 -7 -10 -5 1
-10 0 -13 -1 -48 -18 -227 6 -256 35 -9 8 -20 12 -26 9 -6 -4 -9 -3 -6 2 3 5
-4 18 -15 29 l-20 20 8 -20 c4 -11 10 -32 13 -47 2 -15 8 -25 13 -22 5 3 9 -4
9 -16 0 -12 4 -18 10 -15 6 4 7 -5 4 -24 -6 -26 -4 -30 13 -27 23 5 25 -3 26
-162 1 -136 -10 -167 -38 -112 -17 33 -12 56 6 30 9 -12 10 -12 5 3 -3 10 -6
24 -6 30 0 6 -7 2 -15 -9 -18 -26 -1 -94 24 -94 12 0 16 -11 17 -45 0 -25 -1
-45 -2 -45 -2 0 -8 18 -14 40 -6 22 -15 40 -20 40 -6 0 -10 5 -10 11 0 5 -8
29 -19 52 -15 34 -17 52 -11 97 10 67 12 115 4 108 -3 -3 -10 -37 -15 -74 -10
-69 -21 -95 -33 -75 -4 6 -2 11 4 11 6 0 8 5 4 12 -10 16 -5 107 7 129 5 11 6
19 0 19 -13 0 -21 -26 -21 -71 0 -21 -4 -39 -9 -39 -6 0 -9 66 -8 163 1 127
-3 174 -16 218 -15 49 -17 118 -20 500 -2 303 -7 452 -14 469 -9 20 -12 -13
-12 -155 0 -99 0 -424 -1 -723 0 -480 -2 -543 -15 -549 -9 -3 -18 -3 -21 0 -3
2 -5 325 -5 716 0 391 -2 718 -5 726 -3 8 -42 34 -86 57 -105 56 -184 129
-257 238 -51 77 -81 143 -69 155 5 5 274 -85 373 -124 44 -18 118 -52 163 -76
l84 -43 111 58 c171 89 359 160 520 194 l27 6 0 1470 0 1470 -5120 0 -5120 0
0 -1322z m5070 -1078 l0 -99 38 -10 c58 -16 97 -62 97 -116 0 -47 -14 -68 -54
-80 -21 -7 -23 -5 -19 19 5 24 3 26 -30 26 l-35 0 5 -78 c4 -63 10 -89 38
-140 42 -80 117 -157 199 -205 68 -39 406 -199 578 -273 l102 -44 43 23 c24
13 79 43 123 67 44 24 130 74 192 112 62 38 119 71 128 74 14 6 16 -55 14
-635 0 -504 -3 -641 -13 -641 -15 0 -16 101 -1 112 6 5 6 8 -1 8 -7 0 -11 29
-11 78 0 42 -1 290 -2 550 -1 300 -5 472 -11 470 -13 -4 -148 -173 -205 -256
l-46 -68 1 -472 c0 -431 -5 -524 -24 -448 -3 14 -6 220 -6 458 l-1 433 -59
-62 -60 -61 0 -99 c0 -54 -1 -201 -1 -326 -1 -202 -3 -228 -16 -222 -12 4 -13
2 -6 -7 6 -7 18 -37 28 -66 18 -56 36 -71 113 -91 26 -8 42 -18 42 -27 0 -9
-6 -14 -12 -11 -7 2 -23 0 -35 -4 -13 -5 -23 -4 -25 2 -2 5 -14 10 -28 11 -14
1 -42 14 -62 30 -20 15 -44 28 -52 28 -9 0 -16 7 -16 15 0 8 -4 15 -8 15 -5 0
-15 11 -22 25 -8 15 -22 25 -34 24 -21 0 -21 -1 -1 -9 18 -8 18 -9 -5 -10 -14
-1 -19 -4 -12 -7 17 -7 15 -33 -4 -33 -9 0 -12 5 -8 12 4 6 3 8 -4 4 -6 -3
-14 -1 -18 5 -5 8 -3 9 6 4 10 -6 12 -4 7 9 -4 10 -3 15 3 11 9 -6 12 3 14 48
1 10 8 22 16 27 11 7 12 10 2 10 -7 0 -10 5 -6 12 5 7 11 5 21 -7 12 -17 13
-17 13 -2 0 9 5 17 10 17 6 0 10 -8 10 -17 0 -10 14 -40 30 -68 16 -27 36 -64
45 -81 10 -17 26 -36 38 -43 20 -13 19 -12 -2 15 -46 60 -70 105 -86 162 -16
56 -16 61 0 86 10 15 15 29 12 32 -3 3 -8 -4 -12 -15 -10 -31 -22 -17 -20 23
1 30 -1 33 -18 25 -10 -6 -26 -8 -35 -6 -15 3 -14 5 3 11 11 4 28 12 38 17 20
11 41 3 32 -12 -4 -5 -1 -9 5 -9 16 0 8 21 -13 34 -12 7 -20 8 -25 1 -4 -5
-18 -11 -32 -12 l-25 -3 23 12 c12 6 22 17 22 25 0 9 7 12 24 7 22 -5 24 -3
21 21 -1 15 -9 31 -16 36 -11 6 -10 11 3 26 11 12 14 23 8 34 -5 8 -9 33 -9
55 -1 108 -4 116 -60 176 -32 34 -76 68 -110 84 -118 57 -488 242 -538 270
-29 16 -53 36 -53 44 0 12 -2 13 -9 1 -12 -19 -32 -5 -24 17 6 14 4 15 -9 4
-13 -11 -19 -8 -38 15 -12 15 -19 22 -15 16 3 -7 1 -13 -5 -13 -6 0 -13 15
-17 33 -7 31 -7 31 -14 7 l-6 -25 -11 25 c-6 14 -11 21 -12 15 -1 -5 -5 1 -9
14 -4 14 -12 26 -19 29 -8 2 -10 -2 -6 -13 4 -10 -1 -22 -12 -31 -11 -8 -158
-84 -329 -168 -170 -85 -339 -172 -375 -193 l-65 -39 -1 -50 c-1 -27 -2 -145
-3 -261 -1 -127 -5 -213 -10 -213 -6 0 -8 96 -4 255 4 182 3 255 -5 255 -6 0
-13 -4 -17 -9 -7 -12 -8 -511 -1 -518 3 -3 19 0 36 7 l30 12 0 251 c0 138 2
248 6 245 3 -3 8 -197 11 -432 4 -312 3 -426 -6 -426 -8 0 -11 52 -11 176 0
136 -3 175 -12 172 -10 -4 -14 -54 -18 -189 l-6 -184 -2 173 c-1 94 -5 172 -8
172 -14 0 -103 -94 -97 -103 3 -6 1 -7 -5 -3 -6 4 -20 2 -30 -3 -18 -10 -19
-1 -19 242 l0 252 -42 29 c-68 45 -168 77 -221 70 -141 -20 -252 -136 -267
-279 -5 -52 -8 -56 -20 -40 -35 48 2 175 73 254 53 59 150 122 284 184 418
195 972 475 1047 531 34 25 79 68 100 95 21 27 40 50 43 50 3 0 19 -21 35 -47
40 -62 143 -139 290 -214 66 -34 122 -63 125 -63 3 -1 30 -13 60 -27 30 -14
127 -58 215 -97 88 -40 171 -79 184 -87 19 -13 25 -14 32 -3 4 7 11 10 15 6 7
-6 113 48 166 84 14 11 30 19 35 19 11 0 105 81 100 86 -2 3 -33 -13 -68 -34
-79 -49 -243 -132 -257 -132 -6 0 -35 11 -64 24 -29 13 -93 40 -143 61 -49 21
-184 84 -300 140 -255 123 -336 183 -404 299 -27 45 -29 47 -36 25 -13 -42
-78 -119 -140 -165 -98 -74 -1103 -569 -1120 -552 -11 10 187 116 606 325 407
202 452 227 510 281 75 70 113 139 129 235 14 79 11 93 -24 99 -24 5 -31 -2
-27 -24 0 -5 -10 -8 -23 -8 -33 0 -56 35 -56 83 0 48 39 91 98 107 l42 11 0
98 c0 54 3 101 6 104 17 17 24 -12 24 -103z m3690 -465 l0 -145 45 0 c38 0 45
-3 45 -20 0 -11 -7 -21 -15 -21 -8 -1 -19 -3 -25 -4 -5 -1 -19 -3 -30 -4 -19
-1 -19 -13 -22 -615 -3 -545 -6 -642 -22 -625 -2 2 -6 280 -8 617 -3 673 1
632 -64 632 -30 0 -51 20 -37 34 4 3 26 6 50 6 l44 0 -3 145 c-3 145 -3 145
20 145 22 0 22 -1 22 -145z m-1473 -100 c178 -43 391 -124 523 -199 l64 -37
96 50 c111 58 268 118 430 166 111 32 115 32 118 13 5 -25 -62 -135 -133 -222
-41 -49 -84 -85 -150 -128 -68 -43 -97 -68 -107 -91 -10 -25 -14 -231 -18
-994 -4 -852 -7 -961 -20 -953 -12 8 -16 46 -18 226 -3 175 -1 214 10 208 11
-6 11 -5 0 8 -9 11 -13 46 -12 105 0 48 0 380 0 737 0 357 3 652 6 657 3 5 -2
6 -10 3 -14 -5 -16 -31 -16 -168 -1 -281 -12 -1301 -15 -1304 -2 -2 -13 13
-25 33 -21 33 -21 37 -6 54 12 14 14 24 7 42 -9 23 -10 22 -10 -8 -1 -18 -5
-33 -10 -33 -5 0 -8 26 -7 58 3 72 -2 92 -20 85 -17 -6 -17 -8 -14 705 2 487
1 522 -15 522 -17 0 -17 -44 -13 -709 3 -390 1 -715 -3 -723 -6 -9 -9 -4 -10
17 -2 26 -2 27 -6 6 -3 -13 -11 -31 -19 -39 -13 -12 -14 -8 -8 30 4 23 11 49
17 56 5 7 8 15 5 18 -3 2 -13 -8 -23 -23 -10 -15 -24 -34 -31 -41 -7 -7 -11
-19 -8 -27 4 -8 1 -15 -5 -15 -8 0 -11 82 -12 278 -1 152 -1 293 0 313 2 22
-4 40 -13 48 -15 12 -16 -18 -18 -315 -1 -181 -3 -347 -4 -369 -3 -51 -4 -653
-1 -765 2 -47 0 -103 -4 -125 -9 -58 -13 275 -9 979 2 488 0 618 -10 614 -9
-3 -13 -179 -16 -803 -3 -627 -7 -800 -16 -807 -7 -4 -15 -3 -17 3 -2 6 3 15
10 20 8 5 9 9 3 9 -5 0 -9 15 -8 33 2 17 3 124 3 237 0 237 0 255 6 295 2 17
4 82 3 145 -1 63 -2 284 -2 492 -1 207 -4 374 -8 371 -5 -2 -8 1 -8 6 0 6 -3
11 -7 11 -5 0 -7 -353 -6 -785 2 -432 -1 -785 -5 -785 -4 0 -7 -47 -7 -105 0
-58 3 -105 8 -105 4 0 8 15 8 33 1 18 3 24 6 14 6 -24 -5 -69 -15 -63 -5 3 -9
-11 -10 -31 -2 -28 0 -34 12 -30 10 4 13 1 9 -8 -3 -8 -9 -13 -13 -10 -5 3
-10 -5 -13 -17 -2 -13 -4 563 -5 1279 0 716 -4 1327 -7 1357 -4 30 -12 57 -19
59 -8 3 -10 -98 -8 -394 2 -220 0 -399 -5 -399 -4 0 -15 5 -23 10 -13 8 -15
59 -17 347 -2 186 -6 363 -9 392 -6 57 -20 75 -105 143 -19 14 -79 82 -134
149 -124 153 -165 181 -263 183 -74 1 -116 -17 -131 -57 -20 -54 29 -108 133
-146 107 -39 180 -82 229 -132 l48 -50 -2 -1629 c-2 -1363 -4 -1630 -15 -1630
-12 0 -14 266 -14 1631 0 1108 -3 1637 -10 1650 -12 21 -110 73 -227 120 -101
40 -141 65 -164 103 -27 45 -24 90 9 126 59 66 154 73 349 25z m-2262 -335 c3
-5 -149 -86 -342 -182 -191 -95 -349 -173 -351 -174 -3 -2 -3 -179 1 -637 2
-151 -1 -207 -10 -207 -7 0 -11 22 -11 63 1 34 0 228 0 431 -2 340 -1 370 16
382 49 38 645 332 674 333 9 1 20 -3 23 -9z m44 -33 c9 -7 54 -31 101 -52 47
-21 158 -74 248 -117 90 -43 165 -78 167 -78 2 0 16 -5 32 -12 15 -6 30 -12
33 -12 22 -4 70 -30 70 -38 0 -5 5 -6 11 -3 5 4 19 -1 31 -12 11 -10 22 -17
24 -15 11 7 27 -2 73 -38 29 -23 49 -45 46 -50 -3 -4 -1 -10 4 -12 5 -1 11
-40 14 -84 2 -47 11 -95 21 -114 9 -18 14 -35 11 -38 -8 -8 -45 39 -39 49 3 5
1 9 -5 9 -6 0 -7 7 -4 17 4 9 2 14 -3 10 -6 -3 -11 3 -11 14 -1 10 4 19 10 19
7 0 6 4 -3 10 -10 6 -11 10 -2 10 6 0 12 4 12 8 0 5 -7 9 -15 9 -8 0 -15 -4
-15 -8 0 -4 -7 -10 -16 -13 -14 -5 -15 -4 -4 9 10 12 9 16 -4 21 -10 4 -15 13
-11 22 7 20 -3 52 -18 52 -8 0 -8 -3 1 -12 7 -7 12 -19 12 -27 0 -9 -14 2 -32
24 -18 22 -55 61 -83 88 -27 26 -45 47 -39 47 5 0 16 -6 23 -12 11 -10 12 -10
7 -1 -4 7 -16 18 -28 24 -15 8 -19 8 -14 0 15 -23 -6 -12 -49 27 -8 7 -15 9
-15 3 0 -5 10 -17 22 -25 12 -9 19 -16 15 -16 -5 0 11 -21 35 -46 24 -25 55
-64 71 -86 33 -50 37 -88 4 -44 -50 67 -138 166 -165 185 -16 11 -75 43 -133
71 -57 28 -113 56 -124 63 -11 6 -51 27 -90 47 -105 53 -203 113 -209 128 -7
16 13 16 33 -1z m3321 -1092 c0 -855 -2 -985 -15 -985 -12 0 -14 130 -13 985
0 831 3 985 14 985 12 0 14 -153 14 -985z m-3162 942 c15 0 16 -13 1 -23 -6
-3 -15 0 -20 7 -8 12 -10 12 -18 -1 -6 -8 -6 -19 -2 -25 5 -5 7 -20 5 -32 -3
-17 1 -23 14 -23 34 0 60 38 40 58 -6 6 -7 16 -3 23 6 9 11 7 22 -6 7 -11 13
-15 13 -11 0 5 7 3 15 -4 12 -10 15 -10 15 1 1 11 3 10 13 -2 7 -9 18 -14 25
-12 6 3 12 0 12 -7 0 -6 5 -8 10 -5 6 3 10 -2 10 -11 0 -10 3 -14 6 -11 10 10
44 -12 44 -28 0 -8 5 -15 11 -15 6 0 9 -7 5 -15 -3 -8 -2 -14 2 -13 7 2 72
-59 72 -68 0 -3 -9 -3 -19 1 -20 6 -20 6 -8 -70 1 -5 -9 -11 -21 -13 -20 -3
-23 0 -17 17 5 16 2 21 -12 21 -15 0 -16 -2 -3 -10 13 -8 12 -10 -3 -10 -10 0
-15 -5 -12 -10 4 -6 -48 18 -114 52 -67 34 -121 67 -121 73 0 7 12 17 26 24
31 14 28 23 -4 15 -12 -4 -24 -15 -27 -25 -4 -10 -11 -19 -16 -19 -13 0 -11
14 3 28 6 6 8 15 3 19 -4 5 -10 2 -12 -5 -3 -6 -9 -9 -15 -6 -6 4 -6 9 3 14
16 11 -10 39 -30 32 -8 -3 -11 0 -8 5 11 17 46 23 40 7 -9 -24 13 -15 24 9 13
27 -4 56 -27 49 -8 -3 -12 -2 -8 2 3 4 14 9 25 11 10 1 17 8 15 15 -2 8 3 10
15 5 10 -4 24 -8 31 -8z m-52 -222 c172 -81 205 -98 192 -106 -13 -9 -62 10
-212 80 l-109 51 -194 -96 -194 -96 1 -291 c1 -779 0 -857 -12 -857 -20 0 -24
1153 -4 1169 25 21 380 200 397 201 9 0 70 -25 135 -55z m-775 -7 c1 -13 3
-308 5 -656 3 -624 3 -632 -16 -622 -19 10 -20 26 -20 640 0 346 3 636 6 645
9 22 24 18 25 -7z m-3251 -32 c110 -20 230 -62 246 -87 5 -8 1 -8 -14 0 -26
14 -35 14 -27 1 8 -13 2 -13 -29 1 -14 7 -23 15 -21 19 3 5 -5 8 -18 8 -12 -1
-78 9 -147 22 -131 23 -282 23 -395 1 -66 -14 -94 -19 -129 -27 -47 -10 -158
-63 -172 -82 -7 -9 -14 -14 -14 -9 0 12 -66 -66 -84 -100 -9 -18 -17 -42 -17
-55 -1 -19 -2 -20 -6 -4 -9 36 20 107 64 156 98 109 325 169 613 164 63 -1
131 -5 150 -8z m2776 -39 c3 -8 6 -130 7 -272 2 -194 5 -259 15 -263 21 -7 13
-19 -15 -27 -16 -4 -22 -10 -15 -12 8 -3 12 -27 12 -69 0 -35 -2 -64 -4 -64
-2 0 -11 -2 -18 -5 -12 -5 -14 46 -15 312 0 175 2 339 4 366 5 45 18 61 29 34z
m5284 -45 c-1 -20 -1 -412 -1 -871 1 -458 -2 -837 -5 -842 -3 -5 -2 -9 3 -9 4
0 7 -48 5 -107 -3 -98 -5 -106 -17 -83 -12 21 -14 168 -14 845 -1 833 5 1119
21 1109 5 -3 8 -22 8 -42z m-4140 -537 c0 -487 -2 -555 -15 -555 -13 0 -15 66
-15 533 0 292 3 542 6 555 20 71 24 -29 24 -533z m-3985 453 c125 -43 277
-119 430 -215 119 -75 245 -174 245 -192 0 -18 -116 11 -148 37 -18 15 -50 40
-70 55 -20 16 -36 33 -34 39 1 5 -3 6 -9 2 -6 -3 -14 -2 -18 3 -7 11 -97 73
-105 73 -4 0 -45 25 -92 56 -48 30 -89 52 -93 48 -3 -3 2 -11 13 -18 160 -97
409 -287 386 -294 -7 -3 -16 2 -21 9 -7 12 -9 11 -9 -1 -1 -12 -3 -11 -11 3
-5 9 -19 17 -29 17 -11 0 -20 4 -20 9 0 12 -158 123 -267 188 -86 52 -108 63
-245 127 -37 17 -65 32 -64 34 2 1 34 -9 72 -22 95 -34 53 -6 -52 35 -151 59
-30 65 141 7z m2365 -148 c43 -27 90 -79 90 -98 0 -4 11 -23 25 -42 27 -37 30
-36 15 5 -9 23 -8 25 8 16 23 -12 132 -131 156 -169 9 -15 -111 53 -140 79
-11 11 -24 16 -29 12 -4 -5 -5 -2 -1 5 4 6 3 12 -2 12 -5 0 -16 14 -23 32 -32
78 -111 137 -197 148 -52 6 -55 8 -32 18 43 18 81 13 130 -18z m2384 -27 c10
-61 7 -121 -4 -103 -8 13 -10 12 -10 -2 0 -10 5 -18 10 -18 11 0 7 -28 -17
-103 -12 -38 -35 -68 -114 -148 -72 -73 -95 -101 -83 -106 8 -3 22 1 32 9 27
24 84 48 95 41 5 -3 7 -2 4 4 -9 15 38 34 51 21 8 -8 9 -5 5 11 -4 17 -2 20
13 14 13 -5 16 -3 12 8 -4 9 1 15 11 15 10 0 18 -6 18 -13 0 -7 -4 -13 -9 -13
-5 0 -6 -5 -2 -11 4 -8 9 -7 15 2 4 7 5 17 3 21 -3 4 0 8 7 8 7 0 5 8 -7 21
-19 22 -19 22 4 10 12 -6 22 -19 23 -29 0 -13 3 -11 9 6 5 12 14 22 19 22 6 0
8 7 5 15 -4 8 -1 15 5 15 12 0 14 -11 5 -34 -3 -9 -11 -13 -16 -10 -6 4 -8 -2
-3 -15 5 -17 2 -21 -17 -22 -18 0 -20 -2 -6 -7 13 -5 15 -11 8 -22 -9 -13 -10
-13 -10 0 -1 9 -5 6 -10 -7 -5 -13 -14 -23 -20 -23 -6 0 -9 4 -5 9 3 6 -4 15
-15 21 -12 6 -20 7 -20 1 0 -5 6 -12 13 -15 17 -7 -20 -36 -47 -36 -10 0 -16
-3 -12 -7 4 -4 127 -8 274 -9 226 -1 272 -4 299 -18 46 -23 51 -37 11 -28 -18
4 -181 7 -363 6 -265 0 -340 -3 -382 -16 l-53 -15 0 31 c0 51 11 74 36 80 14
4 29 17 34 30 4 13 33 44 64 71 66 56 105 128 113 209 3 31 10 56 14 56 5 0 9
5 9 11 0 5 -5 7 -11 3 -8 -5 -10 6 -7 34 2 22 0 38 -4 36 -5 -3 -8 2 -8 10 0
33 28 15 34 -21z m1766 -144 c0 -4 9 -5 20 -2 20 5 20 0 20 -243 0 -137 0
-411 0 -609 1 -198 1 -505 1 -683 l-1 -323 -25 24 -25 23 4 299 c2 165 4 301
5 303 1 2 10 0 21 -3 30 -9 25 13 -6 27 -17 8 -37 34 -55 72 -16 33 -28 61
-26 62 2 2 17 -19 35 -46 21 -32 37 -47 47 -44 12 5 12 10 -3 32 -16 24 -17
69 -16 517 1 269 2 499 3 510 3 62 0 65 -54 65 -28 0 -57 -6 -65 -12 -12 -11
-12 -10 0 6 8 10 23 22 35 26 25 9 85 9 85 -1z m-7077 -99 c47 -21 55 -21 957
-21 967 -1 947 -2 1020 48 19 13 36 19 38 14 9 -28 -80 -131 -113 -131 -24 0
-16 -13 28 -45 36 -26 86 -94 87 -117 0 -4 -21 6 -47 22 -26 17 -63 35 -83 40
-22 6 -370 10 -916 10 -957 0 -935 1 -1019 -55 -20 -14 -39 -24 -42 -21 -16
16 87 146 117 146 6 0 10 5 10 10 0 6 -6 10 -13 10 -34 0 -94 69 -112 130 l-7
25 23 -22 c14 -12 46 -31 72 -43z m3665 -85 c1 -116 -1 -133 -14 -128 -8 3
-14 2 -13 -3 4 -21 -2 -28 -12 -14 -10 13 -10 13 -7 0 2 -8 -7 -26 -20 -39
-16 -15 -23 -18 -19 -7 4 9 2 16 -4 16 -7 0 -9 15 -5 43 3 23 2 56 -3 72 -8
28 -9 27 -9 -15 1 -115 -4 -180 -14 -180 -7 0 -8 36 -4 116 8 120 4 133 -33
134 -10 0 -12 -10 -8 -42 4 -24 9 -83 13 -133 3 -49 9 -94 12 -100 3 -5 2 -7
-3 -3 -4 4 -14 3 -20 -2 -9 -8 -12 0 -11 30 1 22 4 40 9 40 4 0 7 5 7 11 0 5
-5 7 -10 4 -7 -5 -11 21 -10 77 0 45 0 90 -1 98 -4 33 2 61 11 55 6 -4 7 -11
4 -17 -5 -8 -1 -9 10 -5 10 4 22 7 27 7 4 0 5 8 2 17 -5 12 -2 15 10 10 11 -4
17 -1 17 8 0 8 7 15 15 15 9 0 18 7 21 15 9 23 23 18 17 -7 -4 -17 -2 -20 5
-9 8 11 11 9 15 -10 2 -13 5 0 6 29 0 28 5 52 9 52 5 0 9 -61 10 -135z m-701
-37 c-36 -62 -50 -143 -37 -203 27 -122 142 -259 262 -315 79 -36 209 -63 288
-58 33 1 60 -1 60 -5 0 -5 5 -5 12 -1 7 4 26 9 43 11 16 1 47 5 68 8 26 4 37
2 37 -8 0 -8 -14 -13 -36 -14 -20 0 -39 -5 -43 -9 -7 -11 -32 -11 -48 -1 -6 4
-13 2 -15 -5 -3 -9 -39 -12 -124 -12 -100 1 -129 4 -179 24 -120 46 -206 116
-280 225 -94 139 -104 248 -33 358 37 58 59 63 25 5z m444 -75 c5 -84 3 -108
-9 -105 -7 1 -12 -2 -12 -8 0 -5 6 -10 13 -10 11 0 13 -21 8 -126 -1 -17 -5
-23 -13 -18 -9 5 -9 2 1 -9 10 -13 12 -38 9 -97 -5 -79 -11 -100 -25 -86 -11
10 -11 447 -1 469 13 26 28 21 29 -10z m-2811 -30 c0 -2 -13 -18 -29 -35 -27
-29 -53 -75 -91 -163 l-13 -30 -7 30 c-8 37 -1 99 11 103 5 2 9 10 9 18 0 10
-5 12 -12 7 -7 -4 -21 -6 -30 -5 -11 2 -18 -3 -18 -12 0 -9 -7 -16 -16 -16
-12 0 -15 -7 -12 -25 3 -14 2 -28 -3 -31 -4 -2 -5 -12 -2 -21 4 -11 3 -14 -5
-9 -7 4 -12 22 -12 39 0 41 26 138 39 146 10 7 191 10 191 4z m8184 -10 c3 -7
12 -13 19 -13 19 0 17 -32 -2 -47 -14 -11 -14 -12 2 -13 19 0 24 -20 5 -20 -9
0 -9 -3 -2 -8 14 -10 24 -38 16 -47 -10 -10 -11 -65 -1 -65 13 0 11 -28 -3
-32 -15 -5 -16 -90 -1 -95 6 -2 8 -18 4 -41 -4 -20 -4 -48 -1 -62 4 -14 3 -35
-1 -47 -5 -13 -5 -23 -1 -23 4 0 0 -5 -8 -10 -13 -8 -12 -10 3 -10 11 0 15 -4
11 -11 -4 -7 -6 -56 -6 -110 2 -94 1 -99 -19 -99 -16 0 -19 4 -14 21 6 19 5
20 -8 8 -8 -8 -13 -17 -10 -21 2 -5 -3 -8 -11 -8 -20 0 -20 10 -1 38 14 19 14
21 1 16 -11 -4 -14 2 -14 26 1 24 5 30 17 25 15 -5 15 -4 0 8 -14 11 -16 46
-15 285 0 149 4 272 8 272 4 0 10 -4 13 -10 3 -5 10 -10 16 -10 5 0 9 5 9 10
0 6 -7 10 -15 10 -22 0 -18 16 7 34 12 9 19 19 15 22 -4 4 -15 -3 -26 -14 -24
-29 -30 -28 -26 6 2 15 4 32 4 38 1 15 29 13 35 -3z m785 -539 c1 -354 -2
-534 -9 -534 -5 0 -10 21 -9 48 0 26 -2 239 -4 475 -4 314 -2 427 7 427 8 0 8
2 0 8 -13 8 -17 63 -8 106 17 79 22 -40 23 -530z m-265 420 c3 -26 6 -350 6
-720 0 -592 -2 -674 -15 -674 -17 0 -15 -74 -20 765 -3 578 -1 675 15 675 4 0
10 -21 14 -46z m-9062 -63 c-13 -52 -13 -74 -4 -118 35 -168 141 -260 401
-350 86 -30 160 -58 166 -64 9 -9 5 -10 -33 -13 -7 -1 -16 -6 -20 -11 -4 -6
-20 -11 -35 -11 -21 -1 -27 2 -22 14 4 12 3 13 -10 2 -13 -11 -27 -10 -80 5
-36 9 -65 21 -65 27 0 5 -4 7 -8 4 -11 -7 -116 47 -154 79 -86 72 -156 201
-172 318 -8 50 10 157 26 157 5 0 6 5 2 12 -5 7 -3 8 6 3 10 -6 12 -4 6 11 -5
12 -4 15 3 9 6 -6 4 -33 -7 -74z m538 40 c0 -3 -10 -12 -21 -19 -18 -12 -21
-21 -17 -64 7 -64 31 -96 98 -130 65 -34 100 -35 165 -4 64 30 99 65 114 116
6 22 15 40 20 40 26 0 71 -89 71 -140 0 -31 -27 -107 -35 -98 -2 2 0 21 6 42
8 29 8 41 -2 46 -6 5 -10 17 -7 27 3 11 0 31 -8 44 -12 23 -13 23 -20 4 -21
-55 -145 -131 -197 -121 -45 9 -28 -2 34 -22 39 -12 55 -23 57 -37 2 -12 0
-16 -5 -10 -4 6 -22 12 -40 13 -17 1 -44 9 -60 17 -15 8 -32 15 -36 15 -5 0
-32 11 -61 24 -117 54 -171 184 -106 254 18 19 50 21 50 3z m679 -42 c15 -42
14 -69 -1 -69 -8 0 -6 -5 4 -10 18 -11 17 -48 -2 -143 -17 -84 -86 -199 -143
-238 -31 -22 -31 -21 8 22 52 57 78 101 100 166 17 55 17 109 -1 67 -10 -24
-100 -101 -179 -154 -27 -19 -53 -38 -57 -44 -5 -7 -8 -7 -8 -1 0 6 -7 1 -15
-9 -8 -11 -17 -17 -21 -14 -3 3 -17 -5 -30 -17 -14 -13 -35 -25 -47 -27 -11
-2 -23 -10 -25 -18 -5 -13 -3 -13 14 0 18 14 18 14 5 -3 -8 -9 -16 -16 -18
-14 -2 2 -28 -19 -57 -47 -30 -28 -69 -64 -87 -80 -19 -16 -34 -33 -34 -37 0
-5 -4 -9 -10 -10 -5 0 -15 -5 -22 -10 -7 -7 -13 -7 -17 0 -3 5 6 19 20 30 15
12 24 21 20 21 -3 0 2 8 12 19 9 10 19 18 22 18 15 0 40 17 40 27 0 7 11 18
25 24 14 6 25 16 25 21 0 5 9 11 20 14 11 3 20 10 20 16 0 18 -122 -70 -202
-145 -27 -25 -48 -42 -48 -38 0 4 -10 -6 -22 -22 -28 -36 -45 -54 -51 -54 -3
0 -19 -14 -37 -30 -88 -83 -3 55 104 168 95 100 250 208 421 293 145 73 177
95 201 142 18 34 35 118 35 175 1 51 22 57 38 11z m6021 -150 c0 -12 -8 -23
-19 -26 -11 -3 -22 -16 -25 -29 -5 -17 -13 -24 -31 -24 -20 0 -27 -6 -32 -30
-4 -24 -10 -29 -24 -25 -18 6 -19 1 -7 -44 1 -7 -5 -15 -14 -16 -41 -7 -39 90
3 152 36 52 46 57 104 60 39 2 45 0 45 -18z m1401 -102 c18 -45 19 -74 18
-376 -3 -482 -6 -602 -14 -643 -8 -44 -25 -51 -26 -10 -3 176 -5 1121 -1 1102
2 -13 13 -46 23 -73z m162 -91 c54 -52 88 -98 83 -112 -3 -7 -1 -16 4 -19 11
-7 14 -45 4 -45 -4 0 -13 8 -20 18 -13 15 -13 15 -8 0 3 -9 1 -25 -5 -35 -10
-17 -10 -17 -11 1 0 10 -8 26 -18 35 -21 19 -55 71 -47 71 4 0 -1 7 -10 16
-12 13 -13 19 -4 30 10 12 9 13 -6 8 -15 -6 -17 -3 -12 16 3 13 2 31 -3 41 -6
10 -7 25 -3 35 6 15 7 14 15 -6 5 -13 23 -37 41 -54z m-4905 -573 c-2 -465 -6
-637 -14 -640 -9 -3 -11 74 -10 291 0 172 5 292 10 288 5 -3 6 1 1 9 -5 7 -10
165 -12 351 -2 292 0 338 12 338 13 0 15 -81 13 -637z m-963 237 c0 -148 -5
-272 -10 -280 -8 -12 -11 -9 -15 15 -9 47 -5 527 5 555 l8 25 7 -25 c3 -14 6
-144 5 -290z m4150 228 c35 -41 45 -87 50 -223 4 -124 2 -136 -11 -50 -6 43
-8 46 -15 25 -7 -24 -7 -23 -8 7 -1 25 -5 31 -16 26 -9 -3 -15 -2 -14 3 4 23
-2 45 -11 39 -6 -4 -10 16 -10 52 0 32 -3 90 -5 128 -4 53 -3 64 5 46 6 -13
21 -37 35 -53z m-3921 -19 c11 -54 7 -119 -6 -119 -9 0 -10 -3 -2 -8 7 -5 11
-135 11 -414 1 -223 4 -411 8 -417 9 -15 -6 -13 -27 2 -15 12 -17 54 -17 458
0 446 3 529 18 529 5 0 11 -14 15 -31z m-124 1 c0 -3 -3 -10 -7 -16 -5 -5 -1
-1 9 8 22 25 29 22 18 -6 -9 -25 1 -29 28 -13 8 6 12 1 12 -13 0 -12 -4 -19
-9 -16 -16 10 -23 -28 -8 -39 21 -15 25 -285 5 -285 -9 0 -10 -3 -2 -8 15 -10
23 -106 11 -128 -9 -16 -12 -13 -24 20 -7 21 -10 42 -7 47 3 5 2 9 -3 8 -4 -1
-23 2 -41 6 -29 7 -32 11 -31 39 1 17 -1 38 -5 46 -10 23 28 44 44 25 13 -16
30 -20 30 -7 0 12 -49 31 -56 21 -3 -5 -10 -9 -16 -9 -7 0 -6 5 1 14 8 9 8 16
2 20 -6 4 -7 15 -2 29 5 13 5 30 0 39 -11 19 4 33 24 23 6 -4 4 0 -6 8 -14 11
-15 16 -5 20 8 3 5 6 -7 6 -15 1 -16 4 -7 13 15 15 16 31 0 22 -8 -5 -9 -2 -4
12 16 38 18 54 7 54 -16 0 -14 18 6 44 16 21 43 31 43 16z m609 -632 c0 -459
-3 -604 -12 -610 -9 -6 -9 -8 1 -8 14 0 17 -46 3 -54 -13 -8 -23 41 -16 78 5
23 4 27 -4 16 -9 -12 -11 -11 -11 8 0 12 5 22 11 22 8 0 8 4 2 13 -14 18 -14
108 0 126 9 11 9 13 0 8 -16 -10 -14 84 2 95 7 5 6 8 -1 8 -9 0 -12 121 -13
460 0 451 0 460 19 450 18 -10 19 -29 19 -612z m-379 517 c0 -31 4 -45 14 -45
13 0 79 -104 126 -200 13 -25 31 -57 41 -72 23 -32 24 -38 3 -38 -16 0 -46 24
-43 35 0 3 -5 19 -11 36 -10 23 -15 27 -22 17 -7 -9 -8 -6 -5 10 3 12 1 20 -3
17 -5 -3 -25 9 -45 26 -31 28 -34 34 -22 48 32 37 30 41 -15 39 l-43 -3 2 40
c2 22 4 61 5 87 4 61 18 63 18 3z m5310 -60 c0 -58 -12 -85 -22 -53 -3 9 -6 9
-12 -1 -5 -8 -1 -14 13 -18 24 -6 29 -33 5 -33 -8 0 -12 5 -9 10 3 6 -1 10 -9
10 -9 0 -16 5 -16 11 0 5 -4 8 -9 4 -13 -8 31 -52 47 -47 7 2 12 -5 12 -18 0
-14 -4 -19 -12 -14 -7 5 -9 2 -6 -8 4 -9 -4 -26 -18 -41 -25 -27 -32 -43 -14
-32 6 3 10 2 10 -4 0 -5 9 -13 20 -16 25 -8 26 -40 3 -54 -17 -10 -17 -10 0
-11 13 0 17 -8 17 -35 0 -19 -5 -35 -10 -35 -7 0 -7 -6 0 -19 14 -27 13 -31
-7 -32 -17 -1 -17 -2 0 -6 19 -5 23 -18 8 -28 -5 -3 -8 -22 -5 -43 l4 -37 -15
34 c-9 18 -14 40 -11 47 3 8 0 11 -11 7 -12 -5 -14 -1 -8 17 4 14 3 20 -3 16
-5 -3 -12 4 -16 17 -10 37 -7 105 5 113 8 4 7 9 -2 15 -12 8 -11 11 1 20 10 7
11 12 4 15 -12 5 -7 54 6 54 7 0 30 45 30 58 0 4 -9 -6 -19 -22 -17 -25 -20
-26 -23 -10 -3 11 2 27 11 37 13 15 13 18 1 15 -19 -4 -21 79 -2 94 16 14 15
29 -2 22 -10 -4 -13 2 -10 22 3 31 12 39 48 42 25 2 26 0 26 -63z m-7192 10
c8 -6 -13 -35 -29 -40 -26 -8 -24 -31 4 -58 52 -48 55 -101 7 -127 -25 -13
-42 -4 -20 11 10 6 5 7 -17 3 -21 -4 -33 -2 -33 4 0 6 -9 9 -19 7 -11 -2 -25
2 -30 9 -9 11 -1 13 37 13 46 0 92 16 92 31 0 4 -11 20 -24 37 -20 25 -26 28
-40 16 -9 -8 -16 -9 -16 -3 0 6 5 12 12 14 7 3 -2 12 -20 20 -18 9 -32 12 -32
7 0 -5 -11 -7 -25 -3 -14 3 -25 2 -25 -3 0 -5 -9 -9 -20 -8 -33 2 -33 13 0 20
17 4 54 27 81 51 l50 44 32 -22 c18 -12 33 -22 35 -23z m-421 -74 c140 -68
217 -168 228 -296 2 -22 7 -48 10 -57 4 -10 3 -18 -3 -18 -11 0 -28 56 -23 79
1 7 -2 10 -7 7 -6 -3 -13 1 -16 10 -3 8 -2 12 4 9 29 -18 -24 74 -59 103 -12
10 -12 12 -1 6 8 -4 4 5 -10 20 -26 29 -210 146 -229 146 -6 0 -11 7 -11 15 0
24 30 18 117 -24z m6383 -273 c-1 -213 -3 -269 -12 -253 -7 11 -13 72 -15 139
-1 65 -5 127 -8 137 -4 12 -2 19 7 19 10 0 9 3 -2 11 -12 9 -13 12 -1 16 11 5
11 7 0 14 -12 8 -11 11 1 19 10 6 11 10 3 10 -19 0 -12 50 7 51 10 0 9 3 -5 9
-11 5 -14 9 -7 9 10 1 10 6 1 22 -9 17 -8 20 2 14 8 -6 10 -4 4 6 -16 25 -13
49 7 49 17 0 18 -15 18 -272z m280 -150 c0 -325 -2 -379 -14 -369 -18 15 -21
272 -3 283 9 6 9 8 -1 8 -9 0 -12 53 -11 234 0 199 3 234 15 229 12 -4 14 -66
14 -385z m-509 295 c25 -27 53 -60 62 -75 19 -30 50 -139 42 -146 -6 -6 -7 -6
-28 41 -10 23 -24 37 -35 37 -10 0 -25 12 -34 28 -9 15 -28 39 -42 54 -26 27
-39 69 -29 94 8 21 15 18 64 -33z m-6454 13 c28 -8 75 -25 105 -39 112 -54
190 -164 152 -214 -13 -17 -13 -17 -14 0 0 10 -4 16 -9 12 -11 -6 -51 45 -52
67 0 10 -2 10 -6 0 -6 -14 -64 43 -60 60 1 6 -5 13 -13 15 -13 4 -13 3 0 -6
13 -9 13 -11 -1 -11 -9 0 -19 10 -22 21 -4 15 -11 20 -21 16 -9 -4 -16 -2 -16
3 0 5 -9 7 -20 5 -11 -2 -18 0 -15 5 3 5 1 11 -5 15 -5 3 -10 0 -10 -7 0 -10
-2 -10 -9 1 -12 19 -43 23 -53 8 -5 -8 -8 -6 -8 5 0 10 -6 15 -12 13 -7 -3
-35 -7 -63 -9 -27 -3 -50 -5 -50 -6 0 -1 -13 -4 -28 -6 -31 -5 -97 -44 -135
-78 -30 -28 -65 -94 -56 -108 4 -6 3 -8 -4 -4 -6 4 -18 -17 -30 -51 -18 -51
-21 -54 -21 -26 -1 42 34 137 71 191 35 51 121 111 186 128 63 17 155 17 219
0z m4113 -170 c99 -23 203 -30 460 -29 234 0 363 11 444 39 21 8 43 14 48 14
13 0 6 -163 -7 -172 -15 -12 -25 -9 -20 5 3 6 1 35 -3 62 l-8 50 -29 -55 c-32
-58 -110 -128 -202 -181 -28 -16 -85 -60 -125 -97 -40 -37 -84 -76 -97 -87
l-25 -20 22 38 c12 20 31 53 43 72 22 38 103 104 184 150 28 15 52 31 55 35 3
3 20 16 38 29 65 46 23 30 -69 -25 -153 -92 -239 -158 -239 -182 0 -17 -20
-15 -26 2 -3 8 -42 38 -87 68 -45 29 -84 55 -87 58 -3 3 -9 5 -15 5 -15 1
-177 85 -197 103 -10 8 -18 11 -18 5 0 -20 59 -63 161 -116 59 -31 105 -58
102 -61 -3 -3 8 -17 25 -30 33 -29 57 -72 70 -133 8 -33 7 -40 -3 -36 -7 2
-15 -4 -18 -14 -4 -14 -5 -13 -6 5 -1 31 -54 144 -74 161 -23 18 -21 10 7 -48
17 -35 20 -53 13 -60 -8 -8 -8 -11 1 -11 7 0 12 -15 12 -37 -1 -37 -1 -37 -14
-14 -8 15 -16 20 -20 12 -4 -6 -2 -11 3 -11 6 0 10 -10 10 -22 -1 -17 -2 -19
-6 -5 -2 9 -12 17 -21 17 -14 0 -14 -2 -3 -9 7 -5 10 -14 7 -20 -5 -7 2 -11
18 -11 14 0 26 -4 26 -10 0 -5 -8 -6 -17 -3 -15 6 -16 4 -6 -8 9 -11 8 -18 -2
-32 -14 -20 -29 -8 -19 16 3 8 0 18 -7 23 -9 5 -10 2 -6 -9 3 -10 3 -17 -1
-17 -4 0 -13 -10 -21 -21 -12 -20 -11 -21 7 -17 18 5 19 3 10 -18 -6 -13 -17
-24 -25 -24 -7 0 -13 -4 -13 -10 0 -33 47 8 150 131 65 77 262 240 275 227 9
-9 -88 -118 -137 -155 -29 -22 -98 -88 -152 -146 -55 -58 -102 -106 -105 -105
-29 3 -42 -4 -37 -18 4 -10 0 -21 -10 -28 -13 -10 -11 -12 13 -11 23 0 28 -4
26 -22 -2 -13 2 -23 7 -23 6 0 10 4 10 9 0 17 92 111 102 104 6 -3 8 -1 5 4
-6 10 36 66 96 125 15 15 27 33 27 39 0 7 3 10 6 6 4 -3 15 4 25 16 10 12 18
16 19 10 0 -7 -4 -13 -8 -13 -5 0 -26 -27 -47 -60 -21 -32 -43 -56 -48 -53 -6
3 -7 1 -3 -5 3 -6 2 -14 -4 -17 -6 -4 -22 -24 -36 -46 -13 -22 -29 -37 -34
-34 -5 3 -7 0 -4 -8 3 -8 0 -18 -7 -23 -8 -4 -10 -3 -5 4 4 7 5 12 2 12 -2 0
-21 -27 -40 -59 -44 -72 -120 -158 -146 -166 -22 -7 -55 19 -45 35 3 5 27 24
53 42 51 35 72 53 72 63 0 4 -12 -3 -26 -14 -15 -12 -29 -21 -33 -21 -3 0 -7
109 -8 243 -1 189 2 253 14 291 11 37 17 46 24 35 5 -8 9 -9 9 -3 0 6 -36 32
-80 57 -86 51 -176 146 -187 198 -8 41 -23 36 -24 -8 0 -21 -2 -83 -3 -138 -2
-55 -4 -130 -5 -166 -1 -49 -5 -68 -16 -73 -13 -5 -15 25 -15 235 0 224 1 240
18 235 9 -3 46 -12 82 -20z m-4029 -33 c77 -37 142 -83 165 -118 18 -28 37
-108 23 -99 -5 3 -9 11 -9 19 0 22 -57 76 -73 69 -8 -3 -33 4 -56 15 -22 12
-47 21 -55 21 -22 0 -130 44 -118 48 6 2 26 -3 44 -12 18 -8 44 -17 58 -21 24
-6 25 -6 5 10 -11 9 -31 19 -45 22 -14 3 -29 9 -35 13 -14 10 -67 24 -82 21
-7 -1 -13 3 -13 9 0 5 -9 10 -20 10 -11 0 -20 -4 -20 -8 0 -5 -7 -9 -15 -9 -8
0 -15 4 -15 9 0 4 7 8 16 8 8 0 13 4 9 9 -8 15 24 20 101 17 55 -2 86 -10 135
-33z m2658 0 c13 -47 14 -103 2 -103 -5 0 -7 -8 -4 -18 2 -11 -5 -34 -17 -53
-20 -31 -21 -32 -18 -8 3 14 -1 30 -8 37 -8 7 -11 20 -8 30 5 14 4 15 -5 2 -6
-8 -8 -23 -5 -34 8 -26 -17 -111 -27 -94 -14 22 -11 80 4 72 6 -4 5 1 -4 12
-9 10 -14 26 -12 34 11 36 75 160 83 160 5 0 14 -17 19 -37z m901 -619 c0
-508 -2 -584 -15 -584 -13 0 -15 76 -15 583 0 321 3 586 6 590 4 4 11 4 15 1
5 -3 9 -268 9 -590z m-3890 510 c0 -51 33 -171 64 -229 72 -137 194 -218 467
-308 180 -60 262 -101 326 -164 98 -95 139 -222 130 -398 -11 -206 -125 -425
-285 -544 -66 -50 -92 -59 -58 -22 11 12 15 25 10 33 -6 10 -4 10 9 -1 20 -15
22 -8 6 20 -10 19 -9 20 12 9 19 -11 21 -10 15 5 -5 13 -2 16 9 11 9 -3 14 -2
11 2 -2 4 -1 14 4 22 7 11 11 11 24 1 9 -8 16 -10 16 -6 0 4 -7 13 -17 20 -9
7 -13 17 -9 24 5 8 13 4 26 -11 11 -13 19 -17 20 -10 0 6 -4 12 -10 12 -5 0
-10 8 -10 18 1 24 26 55 39 47 7 -3 11 3 11 15 0 12 5 18 10 15 6 -3 10 -1 10
5 0 6 5 8 11 4 7 -4 9 0 5 12 -6 20 5 44 20 47 5 1 8 8 6 15 -2 6 2 12 8 12 5
0 10 8 11 18 0 14 2 14 9 -3 7 -17 9 -14 9 13 1 23 5 31 13 26 8 -5 9 -2 5 10
-5 11 -3 15 5 10 8 -5 9 -2 5 10 -5 11 -3 15 5 10 7 -5 9 1 6 19 -3 17 -1 24
5 20 6 -4 8 0 4 10 -4 10 -1 17 6 17 8 0 6 4 -3 10 -8 5 -10 10 -3 10 8 0 10
24 7 83 -3 45 -5 90 -5 100 0 9 -4 15 -8 13 -5 -3 -6 6 -3 19 2 14 0 25 -6 25
-14 0 -35 57 -26 71 5 9 2 10 -11 6 -14 -6 -16 -3 -12 13 3 13 -1 21 -15 26
-29 9 -58 36 -51 47 3 6 1 7 -5 3 -6 -3 -14 -1 -19 7 -12 19 -153 81 -279 122
-234 76 -353 142 -448 246 -69 77 -130 194 -122 239 3 19 0 28 -6 24 -7 -4 -7
5 -2 27 4 19 8 42 8 51 0 9 4 14 8 12 13 -8 9 11 -4 25 -11 10 -9 12 7 9 12
-2 19 2 18 10 -2 6 2 12 7 12 6 0 10 -11 10 -26z m8470 -4 c0 -6 -9 -21 -21
-33 -17 -18 -19 -19 -13 -4 6 17 5 18 -15 6 -11 -8 -21 -16 -21 -19 0 -11 -59
-70 -69 -70 -6 0 -11 -5 -11 -10 0 -6 -5 -16 -10 -23 -6 -7 -18 -21 -26 -32
-9 -11 -12 -13 -8 -5 7 13 5 13 -8 2 -16 -13 -55 -94 -61 -129 -2 -10 -9 -29
-15 -43 -10 -24 -11 -24 -11 10 -1 111 134 324 222 349 44 13 67 13 67 1z
m-2945 -69 c67 -30 141 -137 120 -171 -4 -6 -1 -18 5 -26 15 -17 7 -108 -14
-158 -29 -70 -130 -153 -174 -144 -12 3 -4 11 24 26 80 41 142 135 144 215 0
15 5 27 10 27 7 0 7 6 0 19 -5 11 -10 30 -10 43 0 13 -14 46 -30 72 -37 58
-100 90 -175 89 -44 -1 -72 -8 -150 -38 -19 -7 -19 -7 -3 10 23 25 115 54 168
54 25 1 63 -8 85 -18z m-3217 -58 c-27 -167 27 -303 153 -384 28 -18 126 -63
217 -101 92 -38 172 -74 177 -80 6 -6 0 -5 -13 1 -13 7 -36 13 -52 13 -17 1
-27 5 -23 11 3 6 1 7 -5 3 -7 -4 -38 6 -69 22 -32 16 -111 55 -175 86 -87 42
-126 67 -153 98 -88 101 -113 237 -66 361 16 42 19 32 9 -30z m4107 -100 c11
-3 39 -24 63 -47 l43 -41 -4 -263 c-2 -144 -7 -265 -10 -268 -3 -3 -1 -19 3
-35 7 -22 5 -29 -5 -29 -11 0 -13 53 -14 280 0 278 -8 353 -35 363 -10 4 -12
-3 -5 -36 13 -73 11 -217 -3 -217 -10 0 -10 -2 -1 -8 8 -5 12 -49 11 -142 0
-74 -3 -139 -5 -143 -3 -5 -11 1 -19 12 -11 15 -14 51 -13 138 0 65 0 184 0
265 l-1 147 -27 3 c-18 2 -29 10 -31 22 -3 15 0 17 14 11 11 -4 28 -10 39 -12z
m2421 -8 c-11 -8 -27 -15 -35 -16 -9 0 -25 -2 -36 -3 -11 -2 -55 -6 -98 -10
-98 -9 -119 -13 -187 -32 -79 -22 -202 -85 -196 -101 3 -7 0 -15 -6 -19 -7 -5
-8 -2 -3 6 5 8 3 11 -6 8 -8 -3 -13 -10 -12 -16 2 -6 -4 -9 -11 -6 -14 6 -40
-28 -30 -39 3 -3 -11 -28 -32 -57 -20 -28 -40 -47 -43 -41 -4 6 -12 1 -20 -12
-13 -20 -13 -21 2 -8 68 56 -66 -120 -197 -258 -57 -60 -126 -144 -155 -187
-47 -70 -66 -91 -41 -43 6 10 8 19 5 19 -11 0 -52 -103 -70 -175 -13 -51 -16
-90 -11 -145 3 -41 7 -97 10 -125 2 -27 2 -40 -1 -27 -2 12 -9 22 -15 22 -6 0
-8 -12 -4 -31 3 -17 6 -41 6 -53 0 -17 2 -18 10 -6 8 13 10 13 10 -2 0 -9 -6
-18 -12 -21 -10 -3 -10 -7 0 -19 19 -24 -11 -182 -45 -234 -7 -12 -10 -29 -7
-39 5 -12 4 -16 -3 -12 -21 13 -30 -49 -27 -173 2 -69 6 -140 9 -158 6 -32 8
-33 38 -26 18 3 44 13 59 20 l26 13 -5 -42 c-3 -23 -7 -43 -7 -44 -1 -1 -19 2
-39 8 -21 5 -47 7 -58 4 -19 -6 -20 -14 -17 -121 l3 -114 -28 0 -28 0 3 115 3
115 -32 6 c-20 4 -44 0 -64 -10 -18 -9 -34 -16 -36 -16 -1 0 -3 23 -3 50 l0
51 28 -15 c15 -8 44 -17 64 -21 l37 -7 -1 163 -1 164 48 135 49 135 1 225 c1
200 4 231 22 280 49 132 112 227 237 359 125 131 174 191 244 296 125 189 254
267 467 282 39 3 95 9 125 13 30 4 73 8 95 8 37 1 39 0 21 -13z m-5898 -68
c45 -61 67 -111 56 -129 -4 -7 -3 -10 1 -5 5 4 28 -28 52 -70 24 -43 59 -103
79 -133 27 -43 29 -48 8 -25 -19 22 -24 25 -20 10 5 -15 4 -17 -4 -9 -6 6 -12
18 -14 25 -2 17 -25 57 -26 46 0 -4 -9 -3 -21 4 -14 7 -19 17 -16 31 4 15 2
18 -10 14 -11 -4 -13 -2 -9 9 3 8 2 14 -2 14 -26 -4 -32 2 -22 21 9 16 8 19
-6 13 -13 -5 -15 -2 -10 13 3 10 1 26 -5 34 -9 13 -10 12 -5 -2 3 -10 1 -20
-3 -23 -5 -3 -8 9 -7 25 1 17 -2 30 -7 30 -5 0 -7 7 -4 14 4 10 1 13 -7 10
-16 -6 -31 13 -40 50 -4 15 -10 26 -13 23 -8 -9 -29 15 -38 42 -9 28 11 44 37
30 10 -5 35 -33 56 -62z m3980 -3 c7 4 11 -53 12 -171 1 -191 5 -256 15 -306
13 -58 68 -148 118 -192 60 -52 300 -179 409 -217 l78 -27 0 200 c0 126 4 199
10 199 9 0 11 -43 13 -317 0 -40 3 -73 8 -73 4 0 8 -89 9 -197 0 -172 -1 -195
-13 -178 -14 20 -30 128 -18 121 3 -2 6 18 6 45 0 27 -3 49 -7 49 -5 0 -8 -6
-8 -14 0 -8 -7 -16 -15 -20 -13 -4 -13 -2 -5 14 6 10 17 23 24 27 13 8 19 40
17 91 -1 17 -7 22 -28 22 -38 0 -107 28 -270 107 -169 84 -215 115 -287 194
-63 70 -73 97 -83 217 -5 67 -3 86 8 93 11 7 11 9 -2 9 -21 0 -20 30 1 48 12
10 12 12 1 10 -11 -3 -15 24 -17 142 -2 79 1 138 5 131 5 -8 13 -11 19 -7z
m-1608 -535 c0 -328 -2 -410 -12 -407 -18 6 -22 379 -4 390 8 6 8 8 -1 8 -9 0
-13 21 -13 71 0 50 3 68 12 63 8 -5 8 -3 2 7 -10 15 -14 209 -4 209 10 0 6 54
-5 62 -6 5 -3 8 7 8 16 0 17 -30 18 -411z m-5478 326 c16 -14 47 -28 69 -31
43 -7 57 -20 40 -37 -8 -8 -11 -8 -11 2 0 8 -11 11 -32 9 -26 -2 -40 -13 -66
-50 -18 -27 -37 -48 -42 -48 -5 0 -7 -7 -3 -15 3 -9 -2 -24 -11 -34 -15 -16
-15 -19 2 -39 17 -20 43 -24 58 -9 12 11 26 8 18 -4 -12 -20 40 2 63 27 27 29
37 31 23 5 -16 -31 -71 -59 -110 -56 -38 4 -75 39 -86 82 -7 26 2 38 59 78 25
17 12 41 -33 59 -51 20 -56 31 -26 61 32 31 50 31 88 0z m8394 -203 c-2 -42
-7 -89 -11 -104 l-7 -28 98 -2 c55 -1 130 -1 168 -1 45 1 65 -2 58 -9 -5 -5
-70 -10 -146 -10 -77 0 -136 -4 -136 -9 0 -6 -9 -5 -21 1 -17 10 -23 7 -42
-17 -24 -32 -91 -99 -126 -126 -27 -22 -151 -91 -151 -84 0 9 37 44 70 67 127
86 197 173 207 260 4 36 9 47 15 38 7 -9 8 -7 4 6 -9 25 4 107 15 101 4 -3 6
-40 5 -83z m-3356 4 c0 -4 -7 -6 -15 -2 -8 3 -15 1 -15 -4 0 -6 6 -10 14 -10
8 0 14 -10 14 -25 0 -13 -5 -23 -10 -22 -6 1 -13 -4 -15 -11 -3 -8 2 -10 14
-6 15 5 16 4 3 -5 -13 -10 -13 -12 0 -20 8 -6 11 -13 7 -18 -5 -4 -12 -1 -17
7 -11 17 -13 9 -4 -14 3 -9 9 -14 13 -11 5 2 8 -18 8 -45 1 -27 -2 -49 -6 -48
-20 2 -31 -3 -26 -13 4 -6 12 -8 19 -6 7 3 13 -7 14 -25 2 -21 -1 -27 -10 -22
-9 5 -8 1 2 -12 26 -35 43 -44 87 -44 l42 0 3 148 c4 199 21 192 26 -10 l4
-158 -56 -1 c-31 -1 -62 -2 -68 -3 -7 -1 -21 2 -32 7 -11 5 -21 5 -25 0 -12
-18 -54 -41 -476 -258 -359 -185 -409 -219 -451 -310 -22 -46 -24 -64 -24
-207 0 -150 1 -158 19 -158 11 0 23 5 26 10 11 17 51 11 71 -11 13 -14 19 -36
19 -66 0 -38 -5 -49 -33 -74 -18 -16 -41 -29 -51 -29 -49 0 -51 -6 -51 -126 0
-95 -3 -114 -15 -114 -12 0 -15 20 -15 120 l0 120 -36 0 c-28 0 -44 8 -70 34
-39 39 -43 72 -17 117 19 32 21 32 74 20 36 -8 37 -8 42 25 11 65 -5 247 -26
303 -23 64 -89 136 -167 181 -30 18 -180 95 -333 172 -196 98 -277 143 -273
153 2 7 -2 16 -11 19 -9 4 -13 9 -10 12 3 3 135 -60 294 -142 158 -81 298
-152 310 -158 13 -6 23 -14 23 -18 0 -5 7 -8 16 -8 10 0 14 -6 11 -14 -4 -9 0
-12 13 -9 12 3 23 -3 32 -16 7 -12 18 -21 24 -21 6 0 18 -8 25 -17 12 -14 12
-16 0 -8 -10 5 -12 4 -7 -3 4 -7 15 -12 24 -12 15 0 15 -2 2 -10 -13 -8 -12
-10 4 -10 13 0 16 -5 12 -16 -4 -11 -2 -15 8 -11 9 4 17 -2 21 -14 9 -29 20
-23 40 21 17 37 55 83 55 65 0 -4 9 4 20 18 26 32 91 71 295 177 88 46 165 86
170 90 6 4 98 52 205 105 107 54 197 99 199 101 3 2 -4 11 -15 19 -19 15 -19
15 0 8 16 -5 18 -3 14 15 -4 14 -1 22 10 24 14 3 14 5 -1 20 -18 17 -13 53 6
41 7 -4 8 0 2 13 -4 10 -8 49 -9 87 -1 57 -3 67 -18 67 -11 0 -18 7 -18 18 0
14 2 15 10 2 5 -8 12 -11 16 -7 4 3 1 13 -6 22 -9 11 -9 15 -1 15 8 0 10 8 6
19 -5 18 -3 18 19 8 14 -7 26 -16 26 -21z m1590 -131 c0 -3 -8 -5 -17 -5 -17
-1 -17 -1 -1 -11 13 -7 15 -15 9 -32 -4 -12 -6 -28 -3 -36 3 -8 -1 -12 -9 -8
-8 2 -13 10 -11 16 5 24 -16 0 -26 -28 -9 -26 -7 -33 19 -60 29 -31 38 -26 18
10 -5 11 -14 17 -20 14 -5 -4 -9 -1 -9 4 0 6 4 11 8 11 10 0 49 -29 40 -30 -4
0 -3 -11 2 -25 5 -14 6 -25 1 -25 -5 0 -17 -3 -27 -7 -11 -4 -15 -3 -11 4 8
13 -18 43 -36 43 -7 0 -4 -7 6 -14 20 -16 23 -28 3 -20 -19 7 -29 -26 -13 -45
8 -9 12 -23 10 -31 -3 -12 -2 -12 9 1 12 15 47 17 113 4 11 -2 28 -4 38 -4 10
-1 16 -5 13 -10 -3 -5 0 -9 7 -8 39 1 58 -4 51 -15 -4 -7 -3 -8 5 -4 6 4 18 2
26 -4 8 -7 15 -10 15 -6 0 7 86 -37 114 -58 37 -30 9 -33 -48 -5 -117 57 -205
82 -300 85 -49 2 -91 6 -94 9 -3 3 -12 -2 -21 -10 -9 -9 -32 -26 -51 -38 -37
-24 -100 -100 -100 -122 0 -14 87 -59 470 -240 254 -121 373 -186 351 -193 -6
-2 -123 50 -259 116 -136 65 -323 155 -416 198 -93 44 -170 84 -173 90 -13 34
21 98 100 187 45 50 93 110 107 132 13 22 29 43 34 47 6 4 8 8 4 8 -4 0 -1 19
7 43 7 23 16 59 20 79 6 37 6 37 25 18 11 -11 20 -22 20 -25z m-3949 -160 c0
-99 -2 -188 -6 -197 -11 -28 2 -21 39 20 36 38 110 176 122 224 3 15 23 46 43
69 28 31 45 42 74 44 33 4 36 2 27 -14 -5 -10 -20 -25 -33 -34 -14 -9 -35 -32
-47 -52 -12 -19 -26 -33 -31 -29 -5 3 -9 -1 -9 -8 0 -20 -78 -166 -132 -246
-56 -83 -55 -88 17 -118 25 -10 45 -22 45 -26 0 -4 5 -8 11 -8 6 0 17 -7 25
-15 21 -21 11 -19 -49 9 -29 13 -69 31 -91 40 -37 16 -38 17 -32 54 4 20 6 60
5 87 -1 28 -2 86 -1 130 0 44 1 123 1 175 1 61 4 91 11 84 5 -5 10 -88 11
-189z m-1775 78 c16 -28 30 -51 31 -49 2 2 -4 22 -12 46 -8 24 -14 45 -12 47
7 7 56 -72 73 -117 25 -70 23 -176 -6 -248 -19 -47 -27 -59 -37 -50 -16 13
-17 32 -1 22 8 -5 9 0 5 15 -4 17 -2 21 9 17 18 -7 19 30 2 38 -10 5 -10 7 0
12 10 5 10 9 1 20 -9 11 -7 14 12 15 16 1 19 3 7 6 -19 5 -33 37 -23 53 3 5 2
10 -3 10 -6 0 -13 16 -17 36 -9 53 -47 133 -84 178 -39 48 -39 54 -2 24 16
-13 41 -46 57 -75z m-656 73 c-19 -7 -30 -15 -25 -18 6 -2 4 -3 -3 -1 -7 1
-23 -7 -35 -19 -12 -11 -16 -18 -9 -13 19 10 -7 -35 -30 -53 -10 -7 -15 -19
-11 -29 4 -10 2 -14 -5 -9 -6 4 -11 -1 -11 -11 0 -10 -3 -50 -6 -89 -8 -97 18
-167 83 -225 40 -35 42 -39 15 -26 -90 47 -155 219 -124 334 25 91 107 174
171 172 22 0 21 -2 -10 -13z m4400 -12 c0 -14 -4 -23 -10 -19 -5 3 -10 1 -10
-4 0 -16 -33 -51 -47 -51 -7 0 -12 -5 -10 -11 1 -6 -4 -14 -12 -17 -9 -3 -11
0 -6 8 5 9 4 11 -3 6 -7 -4 -12 -13 -12 -19 0 -18 -66 -68 -158 -122 -111 -63
-339 -174 -355 -171 -18 3 -458 225 -488 247 -32 23 -46 62 -21 56 9 -2 16 -8
15 -13 -1 -6 4 -11 11 -11 6 0 121 -54 253 -121 l242 -122 123 62 c68 33 129
61 137 61 8 0 22 7 32 16 9 9 44 31 77 50 33 18 97 70 143 115 46 45 87 83 92
84 4 1 7 -10 7 -24z m-4015 -143 c104 -48 190 -190 140 -231 -13 -11 -15 -8
-15 13 0 36 -19 76 -54 117 l-31 35 32 -29 c48 -44 49 -26 1 20 -22 21 -38 33
-34 26 8 -13 -24 -11 -91 8 -24 6 -33 5 -33 -3 0 -8 -3 -8 -8 -2 -4 6 -24 10
-44 10 -21 -1 -38 4 -38 10 0 5 -4 4 -9 -4 -6 -9 -21 -12 -45 -9 -20 2 -36 0
-36 -4 0 -4 -3 -7 -7 -6 -19 4 -82 -37 -93 -61 -7 -14 -16 -34 -21 -43 -17
-33 -9 -43 11 -13 24 36 26 30 4 -13 -9 -18 -13 -42 -9 -54 6 -23 6 -23 -10
-3 -21 25 -16 102 9 139 59 92 275 146 381 97z m4108 -27 c-6 -17 -43 -19 -43
-1 0 8 -4 7 -10 -3 -14 -22 -12 -33 5 -26 10 3 15 -1 15 -12 0 -15 2 -15 10
-2 8 13 10 12 10 -2 0 -10 -6 -18 -14 -18 -7 0 -20 -7 -27 -17 -13 -15 -12
-15 8 -2 25 15 43 5 25 -13 -7 -7 -12 -16 -12 -21 0 -5 6 -2 13 5 19 19 40 85
32 100 -4 7 0 5 9 -5 11 -15 12 -24 4 -43 -9 -19 -8 -28 1 -37 10 -9 11 -9 7
3 -3 8 -1 22 4 30 9 13 11 13 20 0 15 -24 12 -29 -27 -48 -21 -9 -40 -20 -43
-23 -3 -3 -54 -31 -115 -62 -82 -42 -113 -53 -122 -45 -10 8 -12 7 -8 -4 4 -9
-5 -19 -22 -28 -15 -8 -35 -19 -43 -25 -8 -6 -35 -20 -60 -30 -25 -11 -47 -22
-50 -25 -3 -3 -35 -22 -71 -42 -59 -32 -67 -34 -76 -19 -10 14 -11 13 -6 -5 3
-16 -7 -30 -43 -60 -26 -22 -55 -51 -64 -66 l-16 -27 -44 52 c-24 29 -40 49
-35 45 9 -8 35 9 35 23 0 5 -7 9 -15 9 -8 0 -15 -4 -15 -9 0 -14 -36 -7 -54
12 -10 9 -21 15 -26 12 -4 -3 -14 3 -21 12 -11 13 -11 17 -1 20 17 6 15 20 -4
27 -8 3 -13 2 -10 -2 2 -4 1 -14 -3 -21 -13 -20 -50 7 -43 31 6 23 19 23 25 1
4 -14 5 -13 6 3 1 27 -19 36 -37 18 -7 -8 -12 -16 -12 -19 0 -9 -9 -5 -152 66
-79 40 -188 94 -243 121 -55 28 -102 52 -104 54 -2 2 1 14 7 26 6 13 11 17 11
9 1 -11 4 -11 19 0 14 11 15 11 5 -1 -15 -16 -17 -34 -4 -25 5 3 12 -3 14 -12
3 -12 5 -8 6 9 0 15 5 30 11 33 5 3 7 0 4 -9 -4 -11 0 -13 15 -9 26 7 27 19 4
32 -10 6 -13 11 -6 11 6 0 15 -4 18 -10 3 -5 11 -10 17 -10 6 0 9 3 5 6 -3 4
1 13 9 22 10 9 13 24 9 39 -4 17 -2 23 6 18 6 -4 15 -1 20 6 6 9 9 10 9 2 0
-6 -4 -14 -9 -18 -6 -3 -9 -24 -9 -48 0 -36 2 -39 9 -18 5 13 7 31 4 40 -3 9
3 21 13 27 14 9 67 -15 279 -121 145 -73 259 -136 255 -140 -4 -5 0 -4 8 0 8
5 25 10 39 11 13 2 99 39 190 83 91 44 188 91 214 104 26 12 45 26 41 29 -3 4
4 4 15 1 13 -3 27 0 34 9 15 19 47 31 47 17 0 -6 5 -7 10 -4 6 4 8 11 5 16 -4
5 -2 9 4 9 5 0 13 -9 16 -20 4 -12 15 -20 28 -19 15 0 17 2 7 6 -16 6 -30 23
-30 36 0 5 4 6 9 3 5 -4 12 0 14 6 3 7 6 3 6 -9 1 -13 6 -23 12 -23 6 0 9 7 5
15 -7 20 13 19 35 -1 11 -10 19 -12 24 -5 3 6 -1 11 -9 11 -10 0 -13 6 -9 16
6 15 7 15 19 -1 7 -9 10 -23 7 -31z m4087 -58 l18 -54 -90 -7 c-49 -3 -111
-13 -138 -21 -26 -8 -167 -75 -314 -150 -280 -143 -323 -161 -323 -138 0 7 4
11 9 8 5 -4 16 2 24 12 9 11 13 13 9 7 -4 -9 -1 -11 9 -7 9 3 13 10 10 15 -3
5 0 10 5 10 22 3 27 5 69 32 24 15 55 33 70 40 15 6 33 17 40 24 8 7 18 11 23
8 5 -4 9 -2 9 3 0 9 94 55 106 52 4 -1 10 2 13 7 6 8 74 43 185 94 27 12 89
27 140 33 l90 12 -2 54 c-3 64 7 54 38 -34z m-593 19 c-19 -14 -12 -52 12 -60
9 -2 22 -15 30 -27 14 -23 14 -23 -7 -5 -18 16 -23 17 -39 5 -31 -23 -24 -34
23 -34 35 0 44 4 44 17 0 12 6 16 20 12 16 -4 18 -8 9 -20 -9 -10 -9 -17 -1
-25 9 -9 12 -7 12 8 0 16 2 17 10 4 8 -12 10 -12 10 5 0 17 2 17 10 5 8 -12
10 -11 10 8 0 12 5 22 10 22 6 0 10 -5 10 -10 0 -7 7 -7 21 0 11 7 18 18 15
25 -2 7 2 16 10 19 8 3 14 0 14 -7 0 -8 3 -8 9 2 5 8 11 9 15 3 4 -7 16 -7 35
1 17 6 27 15 24 20 -3 5 0 8 7 5 19 -6 25 -28 7 -28 -8 0 -44 -16 -81 -36 -37
-19 -70 -33 -73 -30 -3 3 -11 -1 -17 -8 -10 -13 -226 -126 -240 -126 -3 0 -3
7 1 15 3 9 11 14 17 12 17 -6 47 34 44 58 -2 12 -10 19 -21 19 -10 -1 -17 5
-17 16 0 10 -7 21 -16 24 -8 3 -13 10 -10 15 3 5 -1 12 -10 15 -26 10 -34 7
-27 -10 5 -13 7 -13 14 -2 7 10 9 9 9 -4 0 -9 5 -18 11 -20 9 -3 9 -10 0 -26
-9 -18 -9 -22 2 -22 15 0 31 -39 21 -49 -5 -5 -20 14 -27 34 -2 6 -10 5 -20
-3 -14 -12 -19 -12 -32 1 -20 21 -19 26 4 20 13 -3 23 2 31 17 10 19 9 24 -9
37 -20 13 -31 60 -12 49 5 -4 11 -3 13 1 4 10 54 41 91 56 15 6 27 15 27 20 0
4 5 5 12 1 8 -5 6 -10 -5 -19z m-921 -40 c-3 -8 5 -27 17 -42 88 -108 177
-297 196 -416 10 -60 -1 -49 -18 18 -6 27 -30 91 -53 141 -38 88 -72 131 -148
194 -21 17 -22 19 -5 14 11 -3 3 4 -19 15 -77 41 -86 61 -26 61 27 0 43 5 46
15 4 8 8 15 11 15 3 0 3 -7 -1 -15z m128 -59 c55 -26 105 -49 111 -50 7 -1 23
-9 36 -18 21 -13 22 -17 10 -32 -8 -9 -10 -20 -6 -24 4 -4 9 -2 12 3 9 24 23
39 30 32 14 -14 -14 -42 -42 -42 -21 0 -29 -5 -31 -22 -2 -12 3 -23 11 -27 8
-3 15 -11 15 -17 0 -8 -7 -5 -19 5 -10 10 -21 14 -23 9 -3 -4 -3 -2 -2 5 2 6
-2 12 -9 13 -9 0 -9 2 1 6 6 2 12 10 12 16 0 5 -3 7 -7 4 -3 -4 -17 0 -29 8
-17 11 -24 12 -28 2 -3 -7 -7 -3 -11 11 -4 12 -11 22 -15 22 -4 0 -19 17 -33
38 -13 21 -41 55 -60 76 -20 20 -32 36 -29 34 4 -2 52 -25 106 -52z m-1999
-116 c-3 -5 -10 -10 -15 -10 -6 0 -18 -7 -29 -16 -11 -10 -115 -63 -233 -119
-117 -56 -339 -164 -493 -240 -369 -181 -467 -227 -473 -220 -3 3 -1 9 4 14
19 19 635 321 654 321 5 0 10 3 12 8 4 10 189 98 199 95 5 -2 9 1 9 5 0 11
234 122 330 158 44 16 42 16 35 4z m3600 -60 c-16 -11 -33 -20 -38 -20 -8 0
-709 -349 -872 -435 -55 -29 -111 -56 -125 -60 -22 -7 -23 -6 -11 8 18 22 98
66 351 191 118 59 224 112 235 118 56 32 419 206 440 211 43 10 49 6 20 -13z
m-8582 -79 c-4 -15 14 -14 20 2 3 7 6 4 6 -6 1 -10 6 -15 11 -12 6 3 11 3 11
-2 7 -41 4 -60 -10 -70 -15 -12 -14 -12 2 -7 9 3 17 1 17 -4 0 -12 -36 -26
-48 -18 -4 2 -9 -5 -9 -17 -1 -12 1 -17 5 -11 9 15 52 28 52 16 0 -6 -7 -12
-15 -16 -8 -3 -14 -13 -14 -23 1 -17 2 -17 6 0 8 31 26 19 19 -13 -3 -20 -2
-29 4 -25 6 4 10 -6 8 -24 -1 -17 -7 -31 -13 -31 -5 0 -3 -5 5 -10 13 -8 13
-10 -2 -10 -9 0 -20 -4 -23 -10 -3 -5 0 -7 8 -4 20 7 33 -16 16 -27 -12 -7
-11 -9 1 -9 11 -1 10 -4 -4 -15 -15 -11 -16 -15 -5 -15 21 0 21 -501 0 -508
-8 -3 -9 -7 -3 -11 14 -8 20 -291 7 -291 -5 0 -4 -4 4 -9 7 -5 11 -14 7 -20
-4 -6 -1 -21 6 -33 7 -13 11 -28 10 -35 -1 -6 3 -15 9 -19 8 -4 9 -3 5 4 -4 8
0 12 11 12 12 0 14 3 6 8 -26 16 -31 125 -28 532 7 710 7 726 15 695 4 -16 8
-275 9 -575 1 -462 4 -548 17 -567 8 -13 21 -23 29 -23 8 0 15 -5 15 -10 0 -7
6 -7 18 -1 13 7 23 6 32 -2 10 -10 11 -9 5 2 -6 11 -4 13 8 8 10 -3 17 -3 17
2 0 14 44 21 52 8 5 -8 8 -8 8 -1 0 6 18 11 40 11 22 0 40 -3 40 -7 0 -4 -6
-7 -12 -8 -25 -1 -114 -29 -150 -46 -20 -10 -62 -46 -95 -81 -76 -83 -79 -86
-75 -115 2 -20 1 -22 -8 -10 -9 12 -10 9 -5 -13 3 -16 2 -26 -3 -23 -5 3 -9
-19 -10 -49 0 -62 -11 -119 -20 -110 -4 4 -12 38 -18 76 -7 38 -22 87 -33 109
-28 54 -26 59 7 27 l27 -26 0 25 c0 13 -3 24 -6 24 -4 0 -10 12 -13 26 -10 37
-83 112 -130 133 -23 10 -71 26 -108 36 -38 10 -68 23 -68 30 0 13 26 13 80
-2 19 -6 45 -8 57 -7 13 2 22 0 20 -5 -1 -5 0 -10 3 -11 7 -4 88 38 94 49 4 5
6 248 6 540 0 451 2 531 14 531 12 0 15 -84 16 -551 1 -512 0 -551 -16 -545
-15 6 -15 4 -3 -11 12 -15 12 -16 -3 -10 -10 3 -18 2 -18 -3 0 -9 14 -14 33
-11 4 0 7 -3 7 -8 0 -5 -10 -11 -22 -13 -22 -3 -22 -4 7 -30 16 -15 31 -26 32
-24 2 2 3 299 3 660 0 526 2 657 12 653 7 -2 12 -10 11 -16z m-549 -62 c46
-13 91 -57 99 -96 9 -49 -34 -124 -54 -92 -4 7 -4 16 1 19 5 3 14 18 19 33 22
56 -40 117 -116 117 -43 0 -124 -43 -164 -86 -84 -91 -91 -226 -19 -377 43
-90 154 -165 292 -197 48 -10 70 -19 53 -19 -44 -1 -137 25 -196 55 -110 55
-189 165 -209 290 -24 150 54 306 176 349 48 17 68 18 118 4z m3371 -109 c185
-85 331 -155 357 -173 15 -10 36 -20 47 -22 38 -7 223 -110 204 -113 -22 -3
-303 123 -319 144 -6 7 -13 12 -16 9 -5 -5 -427 191 -442 205 -4 5 -5 13 -2
19 4 6 20 3 44 -9 20 -11 78 -38 127 -60z"/>
<path d="M5375 6855 c19 -15 249 -131 450 -225 50 -23 101 -52 114 -64 l23
-21 17 25 c9 14 54 64 100 112 90 94 118 128 103 128 -6 0 -57 -50 -115 -110
l-106 -111 -123 60 c-68 32 -177 85 -243 118 -166 82 -256 118 -220 88z"/>
<path d="M7289 7216 c7 -8 76 -35 154 -60 154 -49 276 -104 374 -167 l62 -41
58 39 c109 73 261 136 401 168 69 16 124 46 110 60 -16 16 -293 -81 -458 -162
l-115 -56 -86 46 c-99 53 -241 111 -382 156 -110 35 -136 39 -118 17z"/>
<path d="M7790 6810 c-3 -89 2 -775 5 -779 3 -2 8 -2 11 2 11 10 5 770 -6 781
-7 7 -10 5 -10 -4z"/>
<path d="M7970 6423 c-1 -219 -1 -445 -1 -503 -1 -129 -1 -135 8 -127 10 11
11 87 1 87 -5 0 -4 8 1 18 13 25 15 922 1 922 -7 0 -10 -129 -10 -397z"/>
<path d="M7743 6428 c3 -276 7 -383 15 -386 9 -3 12 79 12 315 0 326 -6 453
-22 453 -5 0 -7 -168 -5 -382z"/>
<path d="M723 5792 c-40 -2 -73 -7 -73 -12 0 -14 122 -16 850 -16 687 0 841 4
807 20 -16 8 -1419 15 -1584 8z"/>
<path d="M5527 4442 c32 -28 142 -37 443 -37 328 0 440 9 440 36 0 9 -51 6
-130 -7 -34 -5 -543 -5 -600 0 -91 9 -154 17 -165 22 -5 3 0 -3 12 -14z"/>
<path d="M1417 8259 c-5 -18 -12 -21 -37 -17 -17 3 -33 1 -36 -4 -5 -8 23 -12
57 -9 9 1 20 -6 24 -16 7 -19 8 -960 1 -972 -3 -4 -249 -6 -548 -5 -522 1
-545 1 -599 21 -69 26 -124 60 -167 104 -33 34 -33 34 -23 6 19 -49 39 -82 62
-102 24 -20 24 -20 9 0 -8 11 -1 8 16 -8 17 -15 42 -30 55 -32 13 -3 35 -8 49
-12 14 -3 283 -7 598 -8 l572 -2 0 538 c0 452 -2 539 -14 539 -7 0 -16 -10
-19 -21z"/>
<path d="M1538 8236 c-2 -12 -5 -249 -6 -528 l-2 -508 603 4 c466 2 611 6 642
16 22 8 43 13 48 12 4 -1 7 2 7 8 0 5 5 10 11 10 13 0 59 46 59 59 0 4 9 18
20 31 20 23 26 40 14 40 -4 0 -25 -16 -47 -36 -58 -53 -152 -94 -239 -103 -40
-4 -302 -7 -583 -6 l-510 1 -3 445 c-3 474 0 554 24 545 8 -3 24 -2 36 3 27
10 10 22 -37 25 -27 3 -34 -1 -37 -18z"/>
<path d="M1 6960 l0 -495 23 65 c13 36 40 103 61 150 51 115 74 183 89 260 20
102 12 126 -135 435 l-38 80 0 -495z"/>
<path d="M2996 7425 c-5 -16 -44 -98 -86 -181 -49 -95 -81 -168 -86 -199 -9
-64 13 -154 67 -276 33 -76 67 -164 121 -322 4 -10 -1 940 -5 978 l-3 30 -8
-30z"/>
<path d="M10189 7223 c-26 -26 -70 -79 -100 -118 -96 -127 -111 -144 -172
-192 -33 -26 -65 -51 -69 -54 -5 -3 -11 -15 -13 -25 -2 -10 -4 -259 -4 -551
-1 -452 -3 -533 -15 -533 -11 0 -16 21 -21 83 -3 45 -5 96 -4 112 7 102 -3
898 -11 884 -6 -10 -10 -223 -10 -515 -1 -275 -5 -515 -10 -534 -4 -20 -9 177
-10 473 -1 279 -4 512 -5 517 -1 6 -3 19 -4 30 0 11 -5 20 -11 20 -7 0 -10
-183 -10 -529 0 -343 -4 -532 -10 -536 -7 -4 -10 174 -10 526 0 293 -2 530 -5
527 -9 -8 -20 -390 -20 -665 0 -156 -3 -245 -9 -235 -10 17 0 841 10 880 5 18
2 22 -15 22 l-22 0 3 -520 c2 -286 2 -517 1 -513 0 5 -9 33 -19 63 -9 30 -16
68 -15 84 2 29 1 29 -19 11 -21 -19 -27 -30 -10 -20 6 4 10 -8 10 -29 0 -20 4
-36 9 -36 5 0 7 -10 3 -22 -3 -14 -2 -19 6 -14 8 4 12 0 12 -11 -1 -14 -6 -12
-25 12 -32 39 -59 109 -52 135 3 11 1 17 -4 14 -12 -7 -5 34 8 47 7 7 17 0 31
-23 l22 -33 0 28 c0 15 -4 27 -9 27 -5 0 -12 8 -16 19 -3 10 -13 18 -23 17
-16 -1 -17 27 -20 387 -2 304 -5 388 -15 384 -8 -2 -12 -23 -11 -58 1 -90 2
-740 0 -804 0 -33 2 -73 6 -90 7 -28 6 -28 -9 5 -11 25 -16 69 -17 154 -1 78
-5 121 -12 123 -19 6 -10 -223 11 -277 9 -25 20 -91 24 -147 9 -138 28 -155
21 -20 -3 56 -9 108 -13 115 -5 6 -4 12 1 12 5 0 15 -11 22 -25 37 -69 129
-96 287 -84 143 11 305 108 382 227 l31 49 -2 637 -3 637 -46 -48z m-102 -848
c-1 -317 -5 -484 -12 -483 -12 4 -14 408 -2 408 5 0 5 5 2 10 -9 14 -13 170
-5 170 4 0 4 19 1 43 -4 23 -6 83 -5 132 1 50 2 118 3 153 1 38 5 61 11 57 6
-4 9 -186 7 -490z"/>
<path d="M10030 7199 c-128 -44 -265 -104 -360 -157 l-85 -47 -90 47 c-49 25
-126 61 -170 78 -101 41 -288 101 -294 94 -14 -14 46 -47 124 -68 120 -33 274
-98 358 -152 37 -24 70 -44 72 -44 2 0 35 20 72 44 107 69 238 130 358 166 49
15 115 51 115 62 0 11 -4 10 -100 -23z"/>
<path d="M210 6932 c-12 -66 -92 -288 -111 -306 -5 -6 -9 -14 -9 -18 0 -5 20
7 45 26 25 19 66 43 90 53 38 15 45 22 46 48 l2 30 6 -30 c4 -25 6 -21 11 25
l7 55 1 -52 c1 -29 7 -53 12 -53 6 0 11 47 12 118 l2 117 5 -115 c8 -156 26
-143 25 18 -1 67 2 122 6 122 4 0 7 -8 7 -17 -1 -167 4 -233 18 -233 12 0 15
22 17 128 l2 127 6 -120 c9 -142 8 -135 20 -135 5 0 11 54 13 128 l3 127 2
-127 c2 -106 5 -128 17 -128 13 0 15 21 15 127 0 150 12 158 15 11 4 -142 3
-138 20 -138 13 0 15 22 15 140 0 131 -1 140 -19 140 -11 0 -22 -6 -24 -12 -4
-10 -6 -10 -6 -1 -1 9 -36 12 -130 12 l-129 0 -12 -67z"/>
<path d="M580 6873 c0 -118 9 -168 26 -151 3 4 5 67 5 140 -1 73 1 130 4 126
5 -5 10 -83 14 -220 0 -27 6 -48 11 -48 6 0 10 44 10 111 0 71 4 108 10 104 6
-3 10 -52 10 -111 0 -86 3 -104 15 -104 13 0 15 23 17 138 l2 137 6 -134 c3
-95 9 -136 18 -139 9 -3 12 27 13 125 1 152 16 131 18 -24 1 -85 4 -103 16
-103 12 0 15 21 16 128 2 145 8 137 11 -17 2 -73 7 -106 16 -109 9 -3 12 26
12 124 0 70 2 125 5 122 6 -6 13 -97 14 -185 1 -49 4 -63 16 -63 13 0 15 19
14 121 0 66 2 123 5 126 3 4 6 -51 6 -120 0 -106 2 -127 15 -127 12 0 15 22
17 128 l2 127 6 -125 c4 -69 8 -126 9 -127 0 -2 7 -3 14 -3 9 0 11 26 9 105
-2 70 0 105 7 105 7 0 11 -37 11 -105 0 -84 3 -105 14 -105 12 0 14 26 14 140
l-1 140 -168 0 c-166 0 -168 0 -172 -22 l-4 -23 -2 23 c-1 19 -7 22 -41 22
l-40 0 0 -127z"/>
</g>
</svg>
